<?xml version="1.0" encoding="UTF-8" standalone="no"?>
<!-- Created with Inkscape (http://www.inkscape.org/) -->

<svg
   xmlns:dc="http://purl.org/dc/elements/1.1/"
   xmlns:cc="http://creativecommons.org/ns#"
   xmlns:rdf="http://www.w3.org/1999/02/22-rdf-syntax-ns#"
   xmlns:svg="http://www.w3.org/2000/svg"
   xmlns="http://www.w3.org/2000/svg"
   xmlns:sodipodi="http://sodipodi.sourceforge.net/DTD/sodipodi-0.dtd"
   xmlns:inkscape="http://www.inkscape.org/namespaces/inkscape"
   width="122.59734mm"
   height="82.606445mm"
   viewBox="0 0 434.40001 292.7"
   id="svg3588"
   version="1.1"
   inkscape:version="0.91 r"
   sodipodi:docname="fcc_logo_black.svg">
  <defs
     id="defs3590" />
  <sodipodi:namedview
     id="base"
     pagecolor="#ffffff"
     bordercolor="#666666"
     borderopacity="1.0"
     inkscape:pageopacity="0.0"
     inkscape:pageshadow="2"
     inkscape:zoom="0.98994949"
     inkscape:cx="-32.712946"
     inkscape:cy="107.48692"
     inkscape:document-units="px"
     inkscape:current-layer="layer1"
     showgrid="false"
     fit-margin-top="0"
     fit-margin-left="0"
     fit-margin-right="0"
     fit-margin-bottom="0"
     inkscape:window-width="1280"
     inkscape:window-height="745"
     inkscape:window-x="-2"
     inkscape:window-y="-3"
     inkscape:window-maximized="1" />
  <metadata
     id="metadata3593">
    <rdf:RDF>
      <cc:Work
         rdf:about="">
        <dc:format>image/svg+xml</dc:format>
        <dc:type
           rdf:resource="http://purl.org/dc/dcmitype/StillImage" />
        <dc:title></dc:title>
      </cc:Work>
    </rdf:RDF>
  </metadata>
  <g
     inkscape:label="Layer 1"
     inkscape:groupmode="layer"
     id="layer1"
     transform="translate(-159.9429,-100.29792)">
    <path
       id="path29"
       inkscape:connector-curvature="0"
       inkscape:export-filename="C:\Users\anon\Desktop\logo4.0.png"
       inkscape:export-ydpi="3.6897845"
       inkscape:export-xdpi="3.6897845"
       d="m 159.9429,240.89792 c 0,-45.3 15.5,-85.5 47.1,-121.1 11.5,-13.2 20.7,-19.5 27,-19.5 2.3,0 4.6,0.6 6.3,2.3 1.7,1.7 2.9,3.4 2.9,5.7 0,3.4 -4,8.6 -12.1,16.6 -32.7,31.6 -49.4,70.6 -49.4,117.1 0,51.6 17.2,93.5 51.1,125.7 6.9,6.3 10.3,11.5 10.3,15.5 0,2.3 -1.1,4.6 -2.9,6.3 -1.7,1.7 -4,2.9 -6.3,2.9 -8,0 -18.9,-9.2 -33.3,-27.5 -27.5,-33.9 -40.7,-75.2 -40.7,-124 z"
       style="fill:#030000;fill-opacity:1" />
    <path
       id="path31"
       inkscape:connector-curvature="0"
       inkscape:export-filename="C:\Users\anon\Desktop\logo4.0.png"
       inkscape:export-ydpi="3.6897845"
       inkscape:export-xdpi="3.6897845"
       d="m 594.3429,252.39792 c 0,45.3 -15.5,85.5 -47.1,121.1 -11.5,13.2 -20.7,19.5 -27,19.5 -2.3,0 -4.6,-0.6 -6.3,-2.3 -1.7,-1.7 -2.9,-4 -2.9,-6.3 0,-3.4 4,-8.6 12.1,-16.1 32.7,-31.6 49.4,-70.6 49.4,-117.1 0,-51.6 -17.2,-93.5 -51.1,-125.7 -6.9,-6.3 -10.3,-11.5 -10.3,-15.5 0,-2.3 1.1,-4.6 2.9,-6.3 1.7,-1.7 4,-2.9 6.3,-2.9 7.5,0 18.9,9.2 33.3,27.5 26.9,34.5 40.7,75.9 40.7,124.1 z"
       style="fill:#030000;fill-opacity:1" />
    <path
       style="fill:#030000;fill-opacity:1"
       id="path37"
       inkscape:connector-curvature="0"
       d="m 480.7429,365.39792 -199.1,0 c -6.3,0 -12.1,-5.2 -12.1,-12.1 0,-6.9 5.2,-12.1 12.1,-12.1 l 199.1,0 c 6.3,0 12.1,5.2 12.1,12.1 -0.1,7 -5.2,12.1 -12.1,12.1 z"
       inkscape:export-xdpi="3.6897845"
       inkscape:export-ydpi="3.6897845" />
    <path
       id="path3081"
       inkscape:connector-curvature="0"
       inkscape:export-filename="C:\Users\anon\Desktop\logo4.0.png"
       inkscape:export-ydpi="3.6897845"
       inkscape:export-xdpi="3.6897845"
       d="m 442.5429,192.59792 c -3.2,-10.8 -8.3,-21 -16.1,-29 -2.1,-2.1 -4.3,-4.1 -6.5,-6.1 -1.7,-1.6 -6,-4.1 -6.9,-6.2 4.6,10.7 9.1,21.8 5.7,33.6 -1.6,5.3 -7.4,18.1 -15.1,14.8 -7.2,-3.1 -6.4,-18.3 -7,-24.4 -1.5,-15.1 -4.9,-30.1 -12.9,-43.1 -4.4,-7.1 -10.1,-13.4 -17.3,-17.7 -9.5,-5.6 -19.3,-9.4 -30.1,-5.3 2.4,-0.9 8.6,6.3 9.8,7.7 3.8,4.5 6.9,9.8 8.6,15.4 3.4,11.4 0.4,24.5 -3.6,35.4 -8.3,22.6 -22.1,42.9 -28.7,66.1 -2.3,8.1 -3.9,16.4 -4.3,24.8 -1.4,26.5 12.4,50.8 34.2,65.6 4.9,3.4 13.7,7.6 20,5.4 -18.3,-9.8 -24.4,-17.8 -27.2,-29.3 -6.6,-26.7 18.4,-43.7 29.2,-64.8 2.9,-5.6 5,-11.8 4.2,-18.2 -0.3,-2.4 -3,-14.1 -6.6,-13.5 10.9,-1.7 18,5.5 21.7,14.9 3.9,10 6.3,20.2 4.5,30.8 -0.6,3.5 -3.2,14.6 1.9,15.3 7.1,1 13.1,-8.4 11.7,-17.4 -0.7,-4.2 -1.5,-10.6 -1.5,-10.6 7.5,9.2 10.9,18.5 12,28.6 2,18.1 -5.8,42 -20.3,56.8 6.1,-6.2 13.9,-10.5 19.8,-17.2 6,-6.8 10.6,-14.6 14.2,-23 8.1,-18.6 12.8,-39.6 11.4,-59.9 -0.5,-9.7 -1.9,-19.9 -4.8,-29.5 l 0,0 z"
       style="fill:#030000;fill-opacity:1" />
  </g>
</svg>
